<?xml version="1.0" encoding="UTF-8"?>
<svg id="rentegning" xmlns="http://www.w3.org/2000/svg" viewBox="0 0 172.68 127.53">
  <path d="M38,87.14l-1.96-.42c4.23-15.7,6.44-32.18,8.59-48.12l.85-6.26c.59-4.31.86-8.7.82-13.05-.03-3.02-.33-6.12-2.28-8.27-1.7-1.88-4.72-2.95-7.85-2.79-2.71.14-5.57,1.11-8.49,2.88-1.82,1.11-3.1,2.17-4.02,3.34-1.56,1.98-2.27,4.63-2.01,7.44.22,2.37,1.1,4.88,2.69,7.67l-1.8.81c-1.71-3-2.65-5.72-2.9-8.33-.3-3.23.54-6.29,2.36-8.61,1.06-1.36,2.51-2.56,4.54-3.8,3.23-1.96,6.43-3.03,9.51-3.18,3.78-.21,7.44,1.13,9.54,3.45,2.33,2.58,2.68,6.03,2.72,9.37.05,4.42-.23,8.9-.83,13.29l-.85,6.26c-2.15,15.99-4.38,32.53-8.63,48.33Z" style="fill: #fff;"/>
  <path d="M68.86,80.17c-.66-20.82,5.43-41.05,11.48-58.09l.11-.3c1.81-5.09,3.68-10.36,2.85-15.53-.2-1.24-.52-2.09-1.03-2.73-.9-1.12-2.64-1.78-4.54-1.73-2.01.06-3.93.83-5.39,1.5-5.91,2.71-10.95,7.05-14.2,12.2-1.96,3.11-3.28,6.47-4.41,9.64-1.28,3.58-2.43,7.24-3.54,10.79l-3.71,11.84c-.95,3.04-1.94,6.18-2.41,9.32l-2-.24c.49-3.27,1.5-6.47,2.47-9.57l3.71-11.84c1.11-3.56,2.27-7.24,3.56-10.85,1.17-3.26,2.53-6.72,4.58-9.97,3.44-5.46,8.78-10.05,15.03-12.92,1.64-.75,3.84-1.63,6.25-1.7,2.56-.1,4.97.88,6.25,2.48.91,1.14,1.22,2.47,1.38,3.51.9,5.57-1.04,11.04-2.92,16.32l-.11.3c-5.99,16.9-12.03,36.94-11.38,57.5l-2.01.05Z" style="fill: #fff;"/>
  <path d="M99.91,81.29l-1.96-.41c5.09-18.36,10.36-37.32,16.74-55.69l.23-.65c1.98-5.7,4.03-11.59,3.58-17.48-.08-1.06-.27-2.26-.98-3.14-1.36-1.65-4.25-1.7-6.31-1.24-5.77,1.29-9.95,5.64-13.62,10.15-9.06,11.13-16.38,23.51-23.46,35.48l-1.78-.83c7.11-12.03,14.47-24.46,23.61-35.7,3.7-4.55,8.35-9.4,14.76-10.83,2.79-.63,6.47-.45,8.42,1.92,1.02,1.24,1.27,2.75,1.37,4.07.48,6.22-1.62,12.28-3.66,18.13l-.23.65c-6.36,18.31-11.62,37.25-16.7,55.57Z" style="fill: #fff;"/>
  <path d="M116.52,105.03c-.9,0-1.79-.05-2.67-.14-7.51-.81-13.93-5.48-15.61-11.34-.76-2.64-.58-5.35-.41-7.98.12-1.86.25-3.78.02-5.62l2-.2c.24,1.98.11,3.98-.01,5.92-.17,2.6-.33,5.06.35,7.43,1.48,5.16,7.2,9.28,13.9,10,5.87.63,12.33-1.09,18.21-4.86,5.55-3.56,9.97-8.47,13.68-12.79,2.23-2.6,3.87-4.62,5.33-6.54l1.67,1c-1.48,1.96-3.15,4.01-5.4,6.63-3.8,4.42-8.33,9.45-14.1,13.15-5.42,3.48-11.35,5.33-16.96,5.33Z" style="fill: #fff;"/>
  <path d="M67.37,127.53l-1.18-1.45c19.08-12.29,33.86-29.36,48.15-45.87l4.52-5.21c5.26-6.05,10.71-12.31,15.46-18.81,4.27-5.84,8.59-12.82,8.17-20.25-.05-.92-.22-2.22-1.08-2.93-.56-.46-1.44-.71-2.77-.8-4.37-.26-9.22,1.11-14.39,4.08-6.79,3.91-12.43,9.31-16.29,15.63l-1.77-.85c4.02-6.58,9.89-12.21,16.96-16.28,5.55-3.19,10.8-4.65,15.63-4.37,1.14.07,2.8.28,4,1.27,1.39,1.15,1.65,2.92,1.72,4.15.45,7.94-4.04,15.23-8.49,21.31-4.8,6.56-10.27,12.85-15.56,18.93l-4.52,5.21c-14.38,16.61-29.24,33.78-48.56,46.22Z" style="fill: #fff;"/>
</svg>