<?xml version="1.0" encoding="UTF-8"?>
<svg id="rentegning" xmlns="http://www.w3.org/2000/svg" viewBox="0 0 176.18 137.92">
  <path d="M38,92.09l-1.96-.42c4.23-15.96,6.44-32.72,8.59-48.93l.85-6.36c.59-4.39.86-8.85.82-13.27-.03-3.07-.33-6.22-2.28-8.41-1.7-1.91-4.72-3-7.85-2.83-2.71.14-5.57,1.13-8.49,2.92-1.82,1.12-3.1,2.2-4.02,3.4-1.56,2.02-2.27,4.71-2.01,7.57.22,2.41,1.1,4.96,2.69,7.8l-1.8.82c-1.71-3.05-2.65-5.82-2.9-8.47-.3-3.28.54-6.39,2.36-8.76,1.06-1.38,2.51-2.61,4.54-3.86,3.23-1.99,6.43-3.08,9.51-3.24,3.78-.21,7.44,1.15,9.54,3.51,2.33,2.62,2.68,6.13,2.72,9.53.05,4.5-.23,9.04-.83,13.51l-.85,6.36c-2.15,16.26-4.38,33.07-8.63,49.13Z" style="fill: #745655; stroke: #000; stroke-miterlimit: 10; stroke-width: 7px;"/>
  <path d="M68.86,84.98c-.66-21.16,5.43-41.72,11.48-59.04l.11-.3c1.81-5.18,3.68-10.53,2.85-15.78-.2-1.27-.52-2.12-1.03-2.77-.9-1.14-2.64-1.81-4.54-1.76-2.01.06-3.93.85-5.39,1.53-5.91,2.76-10.95,7.16-14.2,12.4-1.96,3.16-3.28,6.58-4.41,9.8-1.28,3.64-2.43,7.36-3.54,10.96l-3.71,12.04c-.95,3.09-1.94,6.28-2.41,9.48l-2-.24c.49-3.32,1.5-6.58,2.47-9.72l3.71-12.04c1.11-3.62,2.27-7.36,3.56-11.03,1.17-3.31,2.53-6.83,4.58-10.14,3.44-5.55,8.78-10.21,15.03-13.13,1.64-.77,3.84-1.66,6.25-1.73,2.56-.1,4.97.89,6.25,2.52.91,1.15,1.22,2.51,1.38,3.57.9,5.66-1.04,11.22-2.92,16.59l-.11.3c-5.99,17.17-12.03,37.55-11.38,58.44l-2.01.05Z" style="fill: #745655; stroke: #000; stroke-miterlimit: 10; stroke-width: 7px;"/>
  <path d="M100.71,86.14l-1.88-.42c4.9-18.81,9.96-38.23,16.09-57.04l.22-.67c1.91-5.84,3.88-11.87,3.44-17.9-.08-1.09-.26-2.32-.95-3.21-1.31-1.69-4.09-1.74-6.06-1.27-5.54,1.32-9.57,5.78-13.09,10.39-8.71,11.4-15.75,24.08-22.55,36.35l-1.71-.85c6.84-12.32,13.91-25.06,22.7-36.57,3.56-4.66,8.03-9.62,14.19-11.1,2.69-.64,6.22-.46,8.1,1.96.98,1.27,1.22,2.82,1.32,4.17.47,6.37-1.56,12.57-3.52,18.57l-.22.67c-6.12,18.76-11.17,38.16-16.05,56.92Z" style="fill: #745655; stroke: #000; stroke-miterlimit: 10; stroke-width: 7px;"/>
  <path d="M116.5,110.28c-.9,0-1.79-.04-2.67-.12-7.52-.66-13.94-4.44-15.62-9.2-.34-.97-.33-2.82-.41-6.47-.04-1.91-.01-3.48.02-4.56.85-1.26,1.69-2.53,2.54-3.79-.24,1.95-.52,4.87-.55,8.44-.02,3.25-.06,4.88.35,6.03,1.48,4.19,7.2,7.53,13.91,8.12,5.87.51,12.34-.88,18.22-3.94,5.55-2.89,9.97-6.87,13.68-10.38,2.23-2.11,3.87-3.75,5.33-5.31l1.67.81c-1.48,1.59-3.15,3.25-5.4,5.38-3.8,3.59-8.33,7.67-14.11,10.67-5.42,2.82-11.35,4.32-16.97,4.32Z" style="fill: #745655; stroke: #000; stroke-miterlimit: 10; stroke-width: 7px;"/>
  <path d="M70.4,133.16l-1.14-1.48c18.33-12.49,32.53-29.85,46.26-46.63l4.34-5.3c5.06-6.15,10.29-12.52,14.86-19.13,4.11-5.94,8.25-13.03,7.85-20.59-.05-.93-.21-2.26-1.04-2.98-.54-.47-1.38-.73-2.66-.81-4.19-.27-8.86,1.13-13.83,4.15-6.53,3.97-11.94,9.47-15.65,15.9l-1.7-.87c3.86-6.69,9.5-12.42,16.3-16.55,5.33-3.24,10.38-4.73,15.01-4.44,1.1.07,2.69.28,3.84,1.29,1.34,1.17,1.58,2.97,1.65,4.22.43,8.08-3.88,15.49-8.16,21.67-4.61,6.67-9.87,13.07-14.95,19.25l-4.34,5.29c-13.81,16.88-28.09,34.34-46.65,47Z" style="fill: #745655; stroke: #000; stroke-miterlimit: 10; stroke-width: 7px;"/>
  <text/>
</svg>