<?xml version="1.0" encoding="UTF-8"?>
<svg id="rentegning" xmlns="http://www.w3.org/2000/svg" viewBox="0 0 209.98 146.07">
  <path d="M54.37,79.1l-.98-.2c.36-1.78.86-3.55,1.48-5.26.37-1.03.7-1.98.9-3.09.86-4.78,2.11-9.53,3.32-14.13,1.26-4.78,2.56-9.72,3.41-14.68.31-1.77.38-3.57.23-5.35-.2-2.25-.81-3.83-1.87-4.85-1.31-1.26-3.34-1.79-6.44-1.68-3.43.12-6.03.8-7.95,2.09-2.11,1.42-3.59,3.73-4.04,6.32-.43,2.44.06,5.08,1.36,7.43l-.87.49c-1.41-2.55-1.94-5.42-1.47-8.09.5-2.86,2.13-5.4,4.47-6.98,2.08-1.4,4.85-2.14,8.47-2.26,2.13-.08,5.18.05,7.17,1.96,1.24,1.19,1.95,2.99,2.17,5.49.16,1.87.08,3.76-.24,5.61-.86,5-2.17,9.96-3.43,14.76-1.2,4.58-2.45,9.31-3.3,14.05-.21,1.18-.57,2.21-.94,3.25-.6,1.66-1.09,3.39-1.44,5.12Z" style="fill: none; stroke: #fff; stroke-miterlimit: 10;"/>
  <path d="M75.39,77.83l-.78-.63c.18-.22.27-.52.36-.87.58-2.24.92-4.58,1.25-6.85.28-1.93.57-3.93,1.01-5.87.26-1.17.6-2.4,1.06-3.89.34-1.09.69-2.17,1.05-3.25.44-1.33.9-2.7,1.3-4.06.38-1.3.69-2.5.93-3.67.16-.77.46-1.49.76-2.19.15-.36.3-.72.43-1.09,1.34-3.74,2.96-9.33,1.63-14.7-.36-1.45-.86-2.44-1.58-3.11-.7-.65-1.72-1.09-2.97-1.27-2.97-.44-6.36.65-9.07,2.92-2.75,2.31-4.54,5.44-5.8,7.91-.85,1.67-1.58,3.45-1.19,5.12l-.97.22c-.46-1.98.34-3.96,1.28-5.8,1.3-2.56,3.15-5.8,6.05-8.23,2.97-2.49,6.56-3.64,9.86-3.15,1.45.22,2.66.75,3.5,1.53,1.14,1.06,1.61,2.56,1.87,3.6,1.4,5.64-.27,11.42-1.66,15.28-.14.38-.3.76-.45,1.14-.29.69-.56,1.33-.7,2.01-.25,1.2-.56,2.42-.95,3.75-.41,1.38-.86,2.76-1.31,4.09-.36,1.08-.71,2.15-1.05,3.23-.45,1.46-.78,2.67-1.04,3.81-.43,1.91-.72,3.88-1,5.8-.33,2.29-.68,4.66-1.27,6.96-.11.43-.24.87-.55,1.25Z" style="fill: none; stroke: #fff; stroke-miterlimit: 10;"/>
  <path d="M111.25,87.28c-.11,0-.23,0-.34,0-3.59-.07-7.29-1.23-10.41-3.28-1.88-1.24-3.24-2.57-4.15-4.08-.8-1.32-.8-2.13-.79-3.24,0-.34,0-.73-.02-1.18-.38-7.04,1.24-14.04,4.7-20.23.59-1.06,1.22-2.07,1.83-3.05.97-1.56,1.89-3.04,2.67-4.69,1.7-3.61,2.82-7.43,3.33-11.38.53-4.05-.17-6.92-2.09-8.51-1.52-1.26-3.58-1.51-5.04-1.5-2.99.03-6.01,1.13-8.29,3.02-1.01.83-1.95,1.86-2.98,3.24-2.6,3.49-4.46,7.56-5.4,11.77l-.98-.22c.97-4.35,2.89-8.55,5.57-12.15,1.08-1.45,2.08-2.53,3.15-3.42,2.45-2.03,5.7-3.21,8.92-3.24,1.64-.02,3.94.27,5.69,1.73,2.19,1.83,3.01,5,2.44,9.41-.53,4.04-1.68,7.97-3.42,11.67-.81,1.71-1.78,3.28-2.73,4.8-.6.97-1.23,1.97-1.81,3.01-3.36,6.03-4.94,12.84-4.57,19.69.03.47.02.87.02,1.23,0,1.05,0,1.63.65,2.72.82,1.36,2.11,2.62,3.84,3.76,2.97,1.94,6.48,3.05,9.89,3.11,3.58.07,7.07-.99,9.85-2.96,4.49-3.2,6.85-8.49,8.94-13.15l.91.41c-2.03,4.55-4.56,10.2-9.27,13.56-2.86,2.04-6.44,3.15-10.11,3.15Z" style="fill: none; stroke: #fff; stroke-miterlimit: 10;"/>
  <path d="M78.96,109.79l-.77-.63c12.82-15.6,27.36-33.29,43.2-48.85l.74-.73c2.51-2.46,5.1-5,7.15-7.87,2.5-3.51,3.85-7.14,3.9-10.51.02-1.31-.21-2.22-.71-2.87-.95-1.21-2.87-1.52-5.72-.91-1.89.41-4.35,1.02-6.61,2.14-2.77,1.39-5.17,3.53-7.21,5.42-4.41,4.12-8.29,7.86-12.89,12.75l-.73-.69c4.62-4.91,8.52-8.66,12.94-12.79,2.08-1.94,4.55-4.14,7.44-5.59,2.36-1.18,4.9-1.81,6.85-2.23,3.25-.7,5.51-.27,6.71,1.27.86,1.1.94,2.52.92,3.5-.05,3.58-1.46,7.41-4.08,11.08-2.1,2.94-4.72,5.51-7.26,8l-.74.72c-15.8,15.52-30.32,33.19-43.13,48.77Z" style="fill: none; stroke: #fff; stroke-miterlimit: 10;"/>
</svg>